<?xml version="1.0" encoding="UTF-8"?>
<svg xmlns="http://www.w3.org/2000/svg" viewBox="0 0 9056.4 1751.23">
  <defs>
    <style>
      .cls-1 {
        fill: #eee300;
        font-family: FugazOne-Regular, 'Fugaz One';
        font-size: 1190.36px;
        stroke: #1d1d1b;
        stroke-width: 2px;
      }

      .cls-1, .cls-2 {
        stroke-miterlimit: 10;
      }

      .cls-3, .cls-2 {
        fill: #fff;
      }

      .cls-4 {
        letter-spacing: 0em;
      }

      .cls-5 {
        letter-spacing: -.03em;
      }

      .cls-2 {
        stroke: #fff;
        stroke-width: 18px;
      }
    </style>
  </defs>
  <g id="Calque_3" data-name="Calque 3">
    <path class="cls-2" d="M7797.69,1269.5c281.41,235.29,683.26,212.54,895.64-101.1,386.98-571.47-135.8-1385.86-800.62-1037.94l-137.46,95.84,73.2-69.19c627.05-450.75,1292.59,258.49,982.1,910.28-166.17,348.84-579.43,507.62-919.14,293.21-31.23-19.71-86.82-54.33-93.73-91.1Z"/>
    <path class="cls-2" d="M8906.49,1166.39l21.17-60.62c-51.57,56.83-99.81,125.69-157.72,175.69-11.77,10.17-30.35,26.62-45.28,30.42,268.64-245.59,325.42-660.35,138.19-972.2l-95.75-131.53c5.64-5.25,69.74,43.71,78.81,51.45,181.38,154.82,234.6,442.38,182.49,668.01-18.57,80.4-63.47,180.84-121.92,238.77Z"/>
    <path class="cls-2" d="M8397.53,1233.11c-8.75-9.28,55.22-53.26,62.93-61.28,227.01-236.01,236.17-630.48-8.37-857.64-7.67-7.13-69.92-47.7-60.62-57.53,384.4,198.1,371.76,768.55,6.06,976.45Z"/>
    <path class="cls-2" d="M7900.7,681.23l22.92,83.11c35.92,105.36,194.32,148.7,267.69,59.22,101.98-124.36-21.56-340.13-184.79-245.62-27.31,15.81-40.57,44.45-69.49,54.71-9.52-9.89,60.04-71.14,70.65-77.81,192.47-120.97,375.21,138.84,210.89,289.94-131.25,120.69-338.29,13.36-317.87-163.55Z"/>
    <path class="cls-2" d="M7912.75,280.98c-60.34,54.92-114.8,108.25-157.66,178.72-91.85,151.03-107.67,318.09-48.45,485.43,10.14,28.66,41.27,78.74,45.99,99.73,1.9,8.44-4.78,12.96-12.48,12.35-155.17-216.59-120.91-537.99,78.86-715.48,24.72-21.96,62.14-53.49,93.75-60.75Z"/>
  </g>
  <g id="Calque_4" data-name="Calque 4">
    <path class="cls-3" d="M8267.36,1047.86l-48.37,18.2-.81-27.57c74.04-24.81,122.74-67.29,179.47-118.19l15.41,15.42-23.8,41.2c7.16,27.43,103.37,63.36,47.49,86.77l-81.47-64.56-55.19,43c4.61,35.28,54.35,82.44,18.84,108.73-11.59.08-50.97-85.35-51.56-103.01Z"/>
    <path class="cls-3" d="M8005.41,1013.02c11.36,11.86,27.1,87.31,37.9,107.59l33.28-78.76,21.11-6.08c6.81,24.98-3.35,52.13-11.98,75.86-43.93,120.67-69.5,18.78-91.02-45.56-14.19-3.03-9.7,1.96-13.51,7.82-14.89,22.93-16.95,66.15-53.05,58.91-12.03-12.02,44.59-123.42,58.4-126.29,6.05.06,14.82,2.29,18.86,6.52Z"/>
    <path class="cls-3" d="M7872.99,805.72c21.22,38.74,55.82,101.88,2.98,132.3-58.15,33.48-69.81-34.86-96.64-59.62-8.28-7.65-36.31-12.54-32.96-27.55,2.18-9.78,119.16-50.68,126.63-45.13ZM7847.83,842.59c-5.82.86-39.6,15.78-40.7,20.69,2.74,17.01,24.98,53.83,44.35,50.17,30.59-5.78,29.99-75.84-3.65-70.86Z"/>
    <path class="cls-3" d="M8135.34,1164.48c-1.71,1.02-17.14,31.09-31.48,16.8-9.5-9.46,37.57-115.06,48.06-129.11,3.07-4.12,11.08-9.23,15.61-8.58,11.78,1.69,90.76,110.88,87.76,122.35-6.75,25.84-35.13-7.06-45.65-8.94-6.71-1.2-71.09,5.58-74.3,7.48ZM8188.67,1126.69l-15.13-36.32c-12.56,11.03-23.02,24.68-21.2,42.4l36.33-6.08Z"/>
    <path class="cls-3" d="M8429.26,855.08c14.58-4.21,90.04-3.66,108.08-1.58,55.52,6.4-6.7,35.52-18.09,49.2-22.81,27.4-22.43,63.35-42.74,90.41-19.05,1.18-52.2-85.31-68.87-101.34-5.09-14.05,8.58-32.93,21.62-36.7ZM8491.57,884.16h-48.41l18.24,48.46c11.15,10.48,29.48-40.8,30.17-48.46Z"/>
    <path class="cls-3" d="M7939.37,957.78c8.37,13.23-30.42,141.41-45.24,144.36-27.26-3.5-13.13-25.63-17.43-35.87-1.21-2.88-38.67-45.06-41.13-46.98-12.73-9.96-36.8-4.53-46.69-22.97,5.53-8.15,12.39-11.31,20.81-15.44,11.13-5.46,86.45-27.39,98.85-28.97,11.27-1.44,20.95.74,30.83,5.87ZM7903.85,987.26l-48.29,15.1,27.2,33.34c12.96,5.2,21.1-39.95,21.09-48.43Z"/>
  </g>
  <g id="Calque_2" data-name="Calque 2">
    <text class="cls-1" transform="translate(2.18 1247.9)"><tspan x="0" y="0">JUNGLE </tspan><tspan class="cls-5" x="4835.16" y="0">G</tspan><tspan class="cls-4" x="5574.36" y="0">YM</tspan></text>
  </g>
</svg>