<?xml version="1.0" encoding="UTF-8"?>
<svg xmlns="http://www.w3.org/2000/svg" viewBox="0 0 4028.78 5710.65">
  <defs>
    <style>
      .cls-1 {
        letter-spacing: -.03em;
      }

      .cls-2, .cls-3, .cls-4 {
        stroke: #1d1d1b;
        stroke-miterlimit: 10;
      }

      .cls-3 {
        font-size: 1000px;
      }

      .cls-3, .cls-4 {
        fill: #eee300;
        font-family: FugazOne-Regular, 'Fugaz One';
        stroke-width: 2px;
      }

      .cls-4 {
        font-size: 1000.36px;
      }
    </style>
  </defs>
  <g id="Calque_5" data-name="Calque 5">
    <path class="cls-2" d="M3021.3,2967.85c226.75,189.59,550.55,171.26,721.68-81.46,311.82-460.47-109.42-1116.69-645.12-836.34l-110.76,77.23,58.98-55.75c505.26-363.2,1041.52,208.29,791.35,733.48-133.9,281.09-466.89,409.03-740.61,236.26-25.16-15.88-69.96-43.78-75.52-73.41Z"/>
    <path class="cls-2" d="M3914.74,2884.77l17.06-48.84c-41.56,45.79-80.42,101.28-127.09,141.57-9.49,8.19-24.45,21.45-36.49,24.52,216.46-197.89,262.22-532.09,111.35-783.36l-77.15-105.98c4.55-4.23,56.19,35.22,63.5,41.45,146.15,124.75,189.03,356.45,147.05,538.26-14.96,64.78-51.14,145.72-98.24,192.39Z"/>
    <path class="cls-2" d="M3504.64,2938.53c-7.05-7.48,44.49-42.92,50.71-49.38,182.92-190.17,190.3-508.02-6.74-691.06-6.18-5.74-56.34-38.43-48.84-46.35,309.74,159.62,299.56,619.27,4.88,786.79Z"/>
    <path class="cls-2" d="M3104.3,2493.85l18.46,66.96c28.95,84.9,156.57,119.82,215.7,47.72,82.17-100.21-17.37-274.07-148.9-197.92-22,12.74-32.69,35.82-55.99,44.09-7.67-7.97,48.38-57.32,56.93-62.7,155.08-97.47,302.33,111.87,169.93,233.63-105.75,97.25-272.58,10.76-256.13-131.79Z"/>
    <path class="cls-2" d="M3114.02,2171.33c-48.62,44.26-92.51,87.23-127.04,144.01-74.01,121.69-86.76,256.31-39.04,391.15,8.17,23.09,33.25,63.44,37.05,80.36,1.53,6.8-3.85,10.44-10.06,9.95-125.03-174.52-97.42-433.49,63.54-576.51,19.92-17.7,50.07-43.1,75.54-48.95Z"/>
    <path class="cls-2" d="M3397.13,2806.57l-38.97,14.67-.65-22.22c59.66-19.99,98.9-54.22,144.61-95.23l12.41,12.43-19.18,33.2c5.77,22.1,83.3,51.05,38.26,69.92l-65.64-52.02-44.47,34.65c3.71,28.43,43.79,66.43,15.18,87.61-9.34.06-41.07-68.77-41.55-83Z"/>
    <path class="cls-2" d="M3186.06,2778.5c9.15,9.56,21.83,70.35,30.54,86.69l26.82-63.46,17.01-4.9c5.49,20.13-2.7,42-9.66,61.12-35.4,97.23-56,15.14-73.34-36.71-11.44-2.44-7.82,1.58-10.89,6.3-12,18.48-13.65,53.31-42.74,47.47-9.69-9.68,35.93-99.45,47.06-101.76,4.87.05,11.94,1.85,15.2,5.25Z"/>
    <path class="cls-2" d="M3079.36,2611.46c17.1,31.21,44.98,82.09,2.4,106.61-46.86,26.98-56.25-28.09-77.87-48.04-6.67-6.16-29.26-10.11-26.56-22.2,1.76-7.88,96.02-40.83,102.03-36.37ZM3059.09,2641.17c-4.69.69-31.91,12.71-32.8,16.67,2.21,13.71,20.13,43.38,35.74,40.43,24.65-4.66,24.17-61.11-2.94-57.1Z"/>
    <path class="cls-2" d="M3290.75,2900.54c-1.38.82-13.81,25.05-25.37,13.54-7.66-7.63,30.27-92.71,38.72-104.04,2.47-3.32,8.92-7.44,12.58-6.92,9.49,1.37,73.13,89.34,70.72,98.58-5.44,20.82-28.31-5.69-36.78-7.2-5.41-.97-57.28,4.49-59.87,6.03ZM3333.72,2870.09l-12.19-29.27c-10.12,8.89-18.55,19.88-17.08,34.17l29.27-4.9Z"/>
    <path class="cls-2" d="M3527.59,2651.24c11.74-3.4,72.55-2.95,87.09-1.27,44.74,5.15-5.4,28.62-14.58,39.65-18.38,22.07-18.07,51.05-34.44,72.85-15.35.95-42.06-68.74-55.49-81.65-4.1-11.32,6.91-26.54,17.42-29.57ZM3577.8,2674.66h-39.01l14.7,39.05c8.98,8.44,23.76-32.88,24.31-39.05Z"/>
    <path class="cls-2" d="M3132.85,2733.99c6.74,10.66-24.51,113.95-36.45,116.32-21.97-2.82-10.58-20.65-14.05-28.9-.97-2.32-31.16-36.3-33.14-37.85-10.26-8.03-29.65-3.65-37.62-18.51,4.46-6.57,9.98-9.11,16.77-12.44,8.97-4.4,69.66-22.07,79.65-23.34,9.08-1.16,16.88.6,24.84,4.73ZM3104.23,2757.74l-38.91,12.16,21.92,26.86c10.44,4.19,17-32.19,16.99-39.03Z"/>
  </g>
  <g id="Calque_6" data-name="Calque 6">
    <text class="cls-3" transform="translate(815.7 5287.66)"><tspan class="cls-1" x="0" y="0">G</tspan><tspan x="620.99" y="0">YM</tspan></text>
    <text class="cls-4" transform="translate(1.99 861.31)"><tspan x="0" y="0">JUNGLE</tspan></text>
  </g>
  <g id="Calque_4" data-name="Calque 4">
    <path class="cls-2" d="M2298.84,3883.72c-2.22-9.47,3.45-9.41,8.22-13.76,102.15-93.24,167.39-178.75,244.82-292.5,5.17-7.6,34.77-50.06,30.07-55.37-154.04,118.62-296.4,255.99-485.9,317.5-5.97,5.8-.46,8.24,2.49,12.48,27.51,39.47,71.72,70.65,107.5,102.54-128.74-9.8-257.92-98.8-324.25-208.11-8.83-14.55-26.18-59.48-33.43-66.72-9.55-9.54-61.42-27.05-78.34-36.42-78.9-43.7-135.95-106.49-186.46-179.88-1.98,117,71.91,201.84,158.69,268.71-74.07-6.35-168.14-19.09-232.85-57.65-87.77-52.3-186.35-173.11-225.67-266.52,118.87-68.76,262.43-65.49,395.03-42.32,4.07-3.63-13.36-24.9-17-29.36-56.95-69.94-195.27-182.26-281.79-206.63-60.56-17.05-132.36-16.88-194.54-30.07-103.12-21.87-204.4-72.95-285.38-139.5-1.61,15.3,9.01,34.36,14.83,48.69,84.16,207.37,212.38,209.54,405.09,254.35,7.52,1.75,8.52-3.29,7.31,9.65-142.84,51.05-284.76,30.82-404.82-61.45-46.66-35.86-78.6-80.09-109.83-129.52-14.63-23.15-28.11-60.15-42.71-79.42-4.19-5.53-5.11-10.02-13.83-8.1-.89,83.79,18.66,166.73,42.62,246.04-60.66,108.26-103.05,229.58-106.14,355-4.87,1.1-6.34-.38-9.81-2.34-18.11-10.21-125.66-153.83-126.85-171.46-.97-14.49,37.4-66.3,46.38-85.17,35.77-75.15,58.6-171.71,65.85-254.13-57.54,63.83-129.19,122.87-219.1,126.52-19.28-73.25-33.86-148.11-34.68-224.21,149.3-17.49,281.05-97.18,399.88-183.71l34.55-31.31c-148.75,54.81-296.62,41-438.68-25.14-9.57-14.79,30.35-163.52,41.41-165.87,32.4,10.77,61.8,26.88,94.63,37,104.35,32.15,206.67,29,311.26-1.14l64.61-25.66c-107.11-4.28-222.35-36.58-312-95.78-21.24-14.02-70.94-52.71-83.87-72.78-6.36-9.86,20.76-54.25,27.69-65.67,8.22-13.54,52.63-77.96,63.2-78.97,41.6,21.16,80.79,53.89,127.1,68.52,68.34,21.6,143.78,16.49,213.94,25.31,72.47,9.11,157.97,30.6,212.87,80.04l-24.29,12.17c185.39-18.32,379.38,33.51,502.69,178.57,134.31,158.01,135.62,352.11,49.02,534.97,52.15-27.86,88.44-79.36,122.97-126.07,166.04,8.2,338.31,199.54,311.23,367.71-4.29,26.62-51.77,81.99-61.08,119.68-6.8,27.52-2.87,55.58-2.11,83.36,5.91,7.12,39.11-41.45,43.78-46.53,171.67-186.85,305.49-169.13,531.4-215.78,168.61-34.82,189.04-93.24,278.04-220.13,3.94-5.61,16.19-27.06,23.11-26l124.53,119.71c-53.87,100.93-129.31,189.38-200.19,278.82,4.95,8,10.78-1.69,14.65-4.88,50.71-41.85,102.95-82.22,148.94-129.49l7.18,7.19-195.16,298.28c-1.97,6.1,1.21,9.77,7.2,7.21,3.02-1.29,43.05-37.87,49.05-43.78,118.97-117.35,245.31-303.27,346.09-440.5,1.89-2.58,5.17-17.77,12.57-9.22,6.62,7.64-93.91,153.45-100.44,175.52-104.02,152.4-201.94,313.22-326.65,450.05-119.22,130.79-252.72,219.15-427.21,258.94l-.24-12.07c158.08-110.78,297-266.72,346.78-457.07-84.15,91.15-159.15,186.66-275.79,239.46-18.88,8.54-80.66,34.21-97.64,34.21h-80.56ZM1668.99,2989.39c9.91-60.36.32-132.68-23.48-189-43.12-102.04-150.11-168.26-254.72-192.11l78.16,60.97c59.73,53.38,104.69,119.6,142.35,189.82l57.69,130.32ZM1236.97,2798.82c-31.37-2.91-70.1,0-102.53,0-1.01,0-8.87,8.23-7.32,9.72,163.03,39.98,298.37,142.9,400.28,273.72-5.92-156.47-140.06-269.5-290.44-283.44ZM1996.12,3575.82c-20.61-104.48-117.87-165.12-219.67-170.97,36.8,37.79,80.34,77.31,122.47,109.48,9.84,7.51,92.56,66.38,97.19,61.48Z"/>
    <path class="cls-2" d="M1302.82,1327.87c11.44,66.9,58.16,118.42,86.98,177.61-79.26,121.33-126.6,243.86-116.41,391.91,7.36,106.84,59.55,192.12,118.26,277.46,14.07,20.45,164.85,213.5,155.31,223.22l-222.19-146.53c-21.73,2.63,9.2,17.89,14.93,24.18,36.06,39.62,66.11,91.77,85.21,141.89l-191.35-40.54c-99.82-81.82-239.04-82.01-348.98-134.49-65.22-31.14-127.89-78.57-176.58-131.36-3.06-12.68,61.09-131.05,73.34-149.66,6.39-9.71,32.35-51.51,43.04-42.4,59.55,171.88,250.48,265.42,415.03,312.72-36.71-34.3-82.26-59.23-119.74-92.68-125.09-111.64-198.33-266.83-182.87-437.42,8.39-92.62,163.17-245.41,237.6-299.73,14.65-10.69,120.54-79.95,128.41-74.2ZM1234.53,1508.73c-52.9,9.44-109.31,57.96-138.71,103-92.16,141.19-33.95,327.21,102.13,414.93l-24.46-78.14c-34.28-147.86-22.49-310.31,61.04-439.79Z"/>
    <path class="cls-2" d="M1150.41,3449.89c83.43,192.57,224.98,350.76,421.07,431.3,33.05,13.58,80.44,21.47,110.06,36.44,7.03,3.55,13.87,4.54,11.88,14.93-115.21-7.81-229.17-29.62-330.36-87.1-148.98-84.64-272.76-253.69-309.16-421.08l96.5,25.51Z"/>
    <path class="cls-2" d="M2293.93,4079.22c8.05,7.19-4.01,9.21-6.22,11.15-92.1,81.25-114.61,110.73-232.53,34.8-75.19-48.41-142-111.95-215.26-163.22,122.42,38.32,243.72,146.71,378.31,136.69,16.88-1.26,72.79-22.03,75.7-19.43Z"/>
    <path class="cls-2" d="M1005.04,3854.37c-2.86,3.27-44.89-26.08-50.41-30.12-25.43-18.63-128.16-113.08-136.19-137.3-11.1-33.49,13.42-121.8,37.74-150.18,20.73,68.4,42.7,137.64,78.48,199.95,17.83,31.05,49.88,65.36,65.66,95.54,4.1,7.85,6.34,12.8,4.72,22.11Z"/>
    <path class="cls-2" d="M2438.16,2167.55c1.2,7.29-.15,11.53-4.55,17.36-8.4,11.13-87.96,59.89-97.93,50.97l29.02-81.03,73.46,12.69Z"/>
    <path class="cls-2" d="M2536.32,2171.52c12.55,11.55-73.87,80.27-87.81,83.05l29.16-70.95,58.65-12.1Z"/>
    <path class="cls-2" d="M1957.04,1205.69c-16.96-8.69-104.22-54.17-87.47-77.82,16.76-23.66,94.56,51.35,87.47,77.82Z"/>
    <path class="cls-2" d="M2252.65,2300.38c-13.5,46.15-50.89,88-102.42,61.04,15.59-21.13,45.22-20.78,65.1-32.48,6.93-4.08,31.54-34.5,37.32-28.56Z"/>
    <path class="cls-2" d="M2100.83,2307.46c-37.94-27.59-63.75-80.82-21.9-117.26.73,43.56,4.68,77.14,21.9,117.26Z"/>
    <path class="cls-2" d="M2326.29,2326.12c-5.63,31.11-21.89,67.48-58.54,48.8l8.07-13.84,50.46-34.96Z"/>
    <path class="cls-2" d="M2703.4,2022.98c7.11,7.4-55.36,79.43-73.18,78.14-7.22-7.34,48.22-61.88,56.11-68.4,5.5-4.54,7.88-11.86,17.07-9.74Z"/>
    <path class="cls-2" d="M2214.54,1653.06c26.07-.01,45.77,19.99,63.32,36.64-35.81,24.3-84.53,14.89-63.32-36.64Z"/>
    <path class="cls-2" d="M2020.38,2437.19c2.06.24,6.65,6.74,12.17,4.87,2.46-15.97-12.46-22.86-20.63-35.5-32.11-49.67-51.94-99.43-68.5-156.23l-35.35-169.87c-7.62,58.96-6.73,119.19-26.89,175.89-27.48-12.82-47.19-35.42-74.74-49.73-25.9-13.45-92.1-39.49-117.56-23.06-20.54,13.25-15.02,55.06-17.54,75.35-.68,5.49,1.76,9.95-7.26,7.15-32.03-9.95-103.59-81.79-123.75-110.73-28.53-40.96-42.03-89.8-49.72-138.42-30.23,28.04-35.66,77.94-34.17,117.27-99.65-112.45-75.28-288,19.58-395.79-8.72-6.82-99.43,56.53-109.48,68.71-10.15,12.3-8.86,38-27.29,26.47,11.67-59.25,19.95-119.53,44.71-175.16,28.63-64.32,78.14-112.83,121.35-166.68-24.24-14.5-38.58-29.99-55.72-51.91-55.8-71.35-97.12-172.67-55.96-260.43,110.41-235.4,302.37,79.58,431.57,119.05,14.91.71,3.38-5.21-.93-8.87-25-21.23-53.91-46.54-77.41-69.12-4.2-4.04-27.15-24.52-21.81-29.43,204.25,48.92,399.55,130.85,579.35,238.6,45.07,27.01,120.01,68.93,142.58,116.29,17.39,36.48,29.36,87.73-9.15,114.18,89.38,54.55,176.79,136.46,246.6,215.02,16.02,18.03,58.21,59.08,43.9,83.22-27.63,25.13-58.18-5.34-87.91-5.35-17.84,0-37.52,14.08-46.95,12.83-7.84-1.04-34.05-40.75-53.14-36.82,14.22,22.49,26.27,46.27,41.89,67.97,10.07,13.99,54.16,55.71,50.43,70.35-1.2,4.72-66.2,58.51-74.21,63.02-77.48,43.67-182.19,16.89-245.24-40.01-18.07-16.3-50.16-49.94-48.74-73.38,28.05,18.44,169.4,72.37,192.91,61.19,2-.95,6.06-5.88,4.84-7.4-31.5-11.42-199.89-80.24-209.89-100.3-3.99-8.01,5.26-9.18,11.09-6.23l198.81,62.44c-52.96-36.9-117.7-73.44-180.61-87.97-1.13-8.55,11.06-4.56,16.99-4.82,62.82-2.73,112.02,21.76,168.48,43.94,7.79-7.56-46.76-46.58-54.09-50.88-155.94-91.54-381.77,74.62-403.55,235.43-14.18,104.74,32.02,219.85,144.95,238.44,33.69,5.55,64.58-.33,98.12,14.18,124.18,53.72-5.28,156.48-76.44,183.02-16.49,3.67,2.38-23.18-1.95-28.85-21.71,8.72-47.38,17.68-70.8,19.45-20.48,1.54-67.61-1.31-87.8-4.81-8.4-1.45-13.65-5.27-12.23-14.59,10.88,4.1,56.43-32.33,48.81-39.12-51.23-2.5-84.44-52.65-107.38-92.88,24.2,2.01,52.01-2.76,75.67,0ZM1710.34,1391.37l-74.11-128.57c-37.23-50.78-123.39-143.18-176.96-61.66-36.2,55.09-3.54,116.34,36.16,158.61,37.59,40.02,92.38,54.55,92.93,119.61l63.41-100.43,58.57,12.44ZM2193.7,1435.33c-64.27-57.65-154.1-109.74-229.43-36.58,18.83,5.92,36.93-3.07,56.18-2.82,56.92.75,118.83,24.59,173.26,39.4ZM2330.35,1660.17c-10.66-52.07-48.29-116.46-98.1-138.77-47.4-21.22-103.92,21.57-150.83,31.33-6.9,6.78.32,8.93,7.2,9.73,48.55,5.69,114.06,5.57,158.83,26.79,32.86,15.57,54.14,49.87,82.89,70.92ZM1710.37,1523.39c-20.52-15.94-104.33,87.37-116.24,105.95-69.08,107.79-92.62,246.48-17.58,357.81,33.82,50.17,79.64,71.81,132.06,97.49,14.12,6.92,118.85,54.05,123.78,49.53l-43.93-75.7c-190.36-121.38-208.92-360.56-78.1-535.09ZM1969.12,1904.57c-140.43-1.87-180.81-149.98-146.69-266.61l36.87-90.15c-80.26,68.36-180.17,251.38-93.01,342.28,17.94,18.71,53.7,32.55,66.25,46.08,10.3,11.1,22.11,40.95,24.34,56.33,13.45,2.13,12.75-19.43,20.3-30.97,24.43-37.37,64.28-28.35,91.94-56.95ZM2408.49,1635.76c-20.65,7.96-32.43,26.6-53.5,36.81-58.71,28.46-51.5-6.6-99.4-27.93-68.95-30.7-159.17-30.2-222.96-82.21l9.77,63.52c11.59-5.37,5.1-17.66,21.45-14.66,4.48.82,71.46,35.4,77.77,39.91,24.11,17.26,25.62,46.29,52.39,64.84,40.04,27.74,88.11,8.81,97.38,14.73,4.69,3,10,19.74,16.85,27.31,11.67,12.88,28.45,20.05,39.26,34.01l-21.97-73.26c21.03,11.51,46.83,11.15,67.03,18.38,10.87,3.89,50.56,39.36,55,35.31l-53.05-67.01c5.43-13.01-1.65-29.84.25-41.89,1.76-11.15,14.83-16.16,13.72-27.87ZM2086.3,1845.93c-54.06-9.63-105.44-65.23-119.71-117.25-7.6-27.71-4.39-56.36-14.53-83.14-63.46,40.42-64.28,150.05.68,189.86,30.43,18.65,91.53,26.88,126.13,20.07,7.78-1.53,8.55,3.47,7.43-9.54Z"/>
  </g>
</svg>